<svg xmlns="http://www.w3.org/2000/svg" width="251" height="54" viewBox="0 0 251 54">
    <g fill="#FFF" fill-rule="evenodd">
        <path fill-rule="nonzero" d="M83.284 15.644v-4.086h2.592V10.19h-2.592V5.96h-1.548v9.684h1.548zm-11.808-.234c1.164-.36 2.208-.834 3.132-1.422.924-.588 1.71-1.263 2.358-2.025.648-.762 1.158-1.593 1.53-2.493.372-.9.594-1.842.666-2.826-.852.024-1.698.036-2.538.036h-5.13v1.332h1.548c.72 0 1.434-.003 2.142-.009.708-.006 1.422-.021 2.142-.045-.276 1.5-.993 2.772-2.151 3.816s-2.697 1.854-4.617 2.43l.918 1.206zm6.66 7.128c.876 0 1.647-.084 2.313-.252.666-.168 1.224-.399 1.674-.693.45-.294.786-.645 1.008-1.053.222-.408.333-.852.333-1.332 0-.48-.111-.924-.333-1.332-.222-.408-.558-.762-1.008-1.062-.45-.3-1.008-.534-1.674-.702-.666-.168-1.437-.252-2.313-.252-.888 0-1.662.084-2.322.252-.66.168-1.215.402-1.665.702-.45.3-.786.651-1.008 1.053-.222.402-.333.843-.333 1.323s.111.924.333 1.332c.222.408.558.762 1.008 1.062.45.3 1.005.534 1.665.702.66.168 1.434.252 2.322.252zm0-1.332c-.636 0-1.188-.054-1.656-.162-.468-.108-.855-.255-1.161-.441-.306-.186-.534-.399-.684-.639-.15-.24-.225-.492-.225-.756s.075-.519.225-.765c.15-.246.378-.462.684-.648.306-.186.693-.336 1.161-.45.468-.114 1.02-.171 1.656-.171.648 0 1.203.057 1.665.171.462.114.846.264 1.152.45.306.186.531.402.675.648.144.246.216.501.216.765s-.072.516-.216.756c-.144.24-.369.453-.675.639-.306.186-.69.333-1.152.441-.462.108-1.017.162-1.665.162zm21.114 1.188v-8.946h2.826V12.08H99.25V5.96h-1.548v16.434h1.548zm-8.28-3.726c.588 0 1.137-.126 1.647-.378s.951-.624 1.323-1.116c.372-.492.666-1.107.882-1.845.216-.738.324-1.587.324-2.547 0-.96-.108-1.806-.324-2.538-.216-.732-.51-1.344-.882-1.836s-.813-.864-1.323-1.116c-.51-.252-1.059-.378-1.647-.378-.588 0-1.137.126-1.647.378s-.954.624-1.332 1.116c-.378.492-.675 1.104-.891 1.836-.216.732-.324 1.578-.324 2.538 0 .96.108 1.809.324 2.547.216.738.513 1.353.891 1.845s.822.864 1.332 1.116c.51.252 1.059.378 1.647.378zm0-1.368c-.42 0-.792-.111-1.116-.333-.324-.222-.597-.531-.819-.927-.222-.396-.39-.87-.504-1.422-.114-.552-.171-1.164-.171-1.836 0-.672.057-1.284.171-1.836.114-.552.282-1.026.504-1.422.222-.396.495-.702.819-.918.324-.216.696-.324 1.116-.324.42 0 .792.108 1.116.324.324.216.597.522.819.918.222.396.39.87.504 1.422.114.552.171 1.164.171 1.836 0 .672-.057 1.284-.171 1.836-.114.552-.282 1.026-.504 1.422-.222.396-.495.705-.819.927-.324.222-.696.333-1.116.333zm25.2 5.094V5.96h-1.548v16.434h1.548zm-12.654-3.384c.936-.54 1.83-1.206 2.682-1.998.852-.792 1.626-1.674 2.322-2.646.516.792 1.077 1.536 1.683 2.232.606.696 1.269 1.32 1.989 1.872l1.152-1.116c-.792-.576-1.53-1.233-2.214-1.971-.684-.738-1.278-1.503-1.782-2.295.54-.9.966-1.836 1.278-2.808.312-.972.486-1.944.522-2.916-.852.024-1.674.036-2.466.036h-5.238v1.314h1.944c.672 0 1.335-.003 1.989-.009.654-.006 1.323-.021 2.007-.045-.072.72-.294 1.512-.666 2.376-.372.864-.861 1.722-1.467 2.574-.606.852-1.314 1.662-2.124 2.43-.81.768-1.695 1.41-2.655 1.926l1.044 1.044zm28.98 3.384V5.96h-1.548v6.12h-2.25V6.14h-1.512v15.84h1.512v-8.568h2.25v8.982h1.548zm-11.214-4.284c.444 0 .903-.018 1.377-.054.474-.036.933-.084 1.377-.144.444-.06.864-.129 1.26-.207.396-.078.738-.159 1.026-.243v-1.278c-.54.12-1.227.249-2.061.387-.834.138-1.761.207-2.781.207h-.594V8.714h4.194V7.382h-5.76V18.11h1.962zm28.8-2.16v-1.314h-7.056v-1.692h4.752V11.72h-9.198v-1.476h8.658V9.038h-8.658V7.724h8.946V6.41h-10.494v6.534h4.392v1.692h-7.002v1.314h15.66zm-7.686 6.588c.912 0 1.716-.069 2.412-.207.696-.138 1.278-.333 1.746-.585.468-.252.819-.549 1.053-.891.234-.342.351-.711.351-1.107 0-.408-.117-.783-.351-1.125-.234-.342-.585-.636-1.053-.882-.468-.246-1.05-.438-1.746-.576-.696-.138-1.5-.207-2.412-.207-.924 0-1.734.069-2.43.207-.696.138-1.278.33-1.746.576-.468.246-.822.54-1.062.882-.24.342-.36.717-.36 1.125 0 .804.471 1.47 1.413 1.998.942.528 2.337.792 4.185.792zm0-1.26c-.744 0-1.365-.045-1.863-.135-.498-.09-.9-.207-1.206-.351-.306-.144-.522-.306-.648-.486s-.189-.366-.189-.558c0-.192.063-.381.189-.567.126-.186.342-.351.648-.495.306-.144.708-.258 1.206-.342.498-.084 1.119-.126 1.863-.126.732 0 1.347.042 1.845.126.498.084.9.198 1.206.342.306.144.522.309.648.495s.189.375.189.567c0 .192-.063.378-.189.558-.126.18-.342.342-.648.486-.306.144-.708.261-1.206.351-.498.09-1.113.135-1.845.135zm21.942-4.896V5.96h-1.548v2.268h-2.736v1.278h2.754v1.602h-2.754v1.296h2.736v3.978h1.548zm-9.918-1.152c1.272 0 2.463-.06 3.573-.18 1.11-.12 2.103-.288 2.979-.504V13.25c-.756.18-1.65.336-2.682.468s-2.25.198-3.654.198h-1.53v-2.412h5.364v-4.95h-6.966V7.85h5.418v2.394h-5.382v4.986h2.88zm4.5 7.308c.912 0 1.71-.075 2.394-.225.684-.15 1.254-.357 1.71-.621.456-.264.798-.576 1.026-.936.228-.36.342-.75.342-1.17 0-.432-.114-.831-.342-1.197-.228-.366-.57-.684-1.026-.954-.456-.27-1.026-.48-1.71-.63-.684-.15-1.482-.225-2.394-.225-.9 0-1.686.075-2.358.225-.672.15-1.236.36-1.692.63-.456.27-.798.585-1.026.945-.228.36-.342.756-.342 1.188 0 .42.114.81.342 1.17.228.36.57.675 1.026.945.456.27 1.02.48 1.692.63.672.15 1.458.225 2.358.225zm0-1.26c-.648 0-1.212-.048-1.692-.144-.48-.096-.879-.222-1.197-.378-.318-.156-.552-.336-.702-.54-.15-.204-.225-.414-.225-.63 0-.228.075-.45.225-.666.15-.216.384-.405.702-.567.318-.162.717-.291 1.197-.387.48-.096 1.044-.144 1.692-.144.66 0 1.233.048 1.719.144.486.096.888.225 1.206.387.318.162.552.351.702.567.15.216.225.438.225.666 0 .216-.075.426-.225.63-.15.204-.384.384-.702.54-.318.156-.72.282-1.206.378-.486.096-1.059.144-1.719.144zm21.474 1.116V5.96h-1.548v16.434h1.548zm-8.874-3.726c.588 0 1.14-.126 1.656-.378s.963-.624 1.341-1.116c.378-.492.675-1.107.891-1.845.216-.738.324-1.587.324-2.547 0-.96-.108-1.806-.324-2.538-.216-.732-.513-1.344-.891-1.836s-.825-.864-1.341-1.116c-.516-.252-1.068-.378-1.656-.378-.588 0-1.137.126-1.647.378s-.957.624-1.341 1.116c-.384.492-.687 1.104-.909 1.836-.222.732-.333 1.578-.333 2.538 0 .96.111 1.809.333 2.547.222.738.525 1.353.909 1.845s.831.864 1.341 1.116c.51.252 1.059.378 1.647.378zm0-1.368c-.42 0-.795-.111-1.125-.333-.33-.222-.606-.531-.828-.927-.222-.396-.393-.87-.513-1.422-.12-.552-.18-1.164-.18-1.836 0-.672.06-1.284.18-1.836s.291-1.026.513-1.422c.222-.396.498-.702.828-.918.33-.216.705-.324 1.125-.324.42 0 .795.108 1.125.324.33.216.606.522.828.918.222.396.393.87.513 1.422.12.552.18 1.164.18 1.836 0 .672-.06 1.284-.18 1.836s-.291 1.026-.513 1.422c-.222.396-.498.705-.828.927-.33.222-.705.333-1.125.333zm25.488-9.918v-1.35h-5.796v1.35h5.796zm-8.55 6.912c1.02-.156 2.094-.39 3.222-.702 1.128-.312 2.202-.708 3.222-1.188.864.384 1.773.723 2.727 1.017.954.294 1.905.525 2.853.693l.738-1.242c-.888-.132-1.743-.303-2.565-.513-.822-.21-1.593-.447-2.313-.711.612-.372 1.155-.777 1.629-1.215.474-.438.849-.909 1.125-1.413.06-.096.063-.198.009-.306-.054-.108-.153-.168-.297-.18-.852.024-1.671.036-2.457.036h-7.263v1.296h3.546c.672 0 1.344-.003 2.016-.009.672-.006 1.35-.027 2.034-.063-.42.372-.948.729-1.584 1.071-.636.342-1.344.654-2.124.936-.78.282-1.62.531-2.52.747-.9.216-1.818.384-2.754.504l.756 1.242zm6.93 8.01v-5.436h6.714v-1.314h-15.3v1.314h7.056v5.436h1.53zm16.074 0v-7.038h6.696v-1.314h-2.88c.072-.468.144-.996.216-1.584.072-.588.141-1.2.207-1.836.066-.636.117-1.284.153-1.944.036-.66.054-1.296.054-1.908h-10.71v1.332h9.144c0 .432-.015.897-.045 1.395s-.069 1.005-.117 1.521-.108 1.032-.18 1.548-.144 1.008-.216 1.476h-10.926v1.314h7.02v7.038h1.584zm20.268.036v-8.19h2.79v-1.332h-2.79V5.96h-1.548v16.38h1.548zm-5.184-14.328V6.644h-5.49v1.368h5.49zm2.25 2.682V9.326h-10.008v1.368h10.008zm-4.968 8.226c.564 0 1.086-.09 1.566-.27.48-.18.897-.432 1.251-.756.354-.324.63-.708.828-1.152.198-.444.297-.93.297-1.458 0-.516-.099-.996-.297-1.44-.198-.444-.474-.828-.828-1.152-.354-.324-.771-.579-1.251-.765-.48-.186-1.002-.279-1.566-.279-.564 0-1.089.093-1.575.279-.486.186-.906.441-1.26.765s-.63.708-.828 1.152c-.198.444-.297.924-.297 1.44 0 .528.099 1.014.297 1.458.198.444.474.828.828 1.152.354.324.774.576 1.26.756.486.18 1.011.27 1.575.27zm0-1.314c-.348 0-.669-.057-.963-.171-.294-.114-.549-.273-.765-.477-.216-.204-.384-.447-.504-.729s-.18-.591-.18-.927c0-.336.06-.645.18-.927.12-.282.288-.528.504-.738.216-.21.471-.372.765-.486.294-.114.615-.171.963-.171.336 0 .651.057.945.171.294.114.549.276.765.486.216.21.384.456.504.738s.18.591.18.927c0 .336-.06.645-.18.927-.12.282-.288.525-.504.729-.216.204-.471.363-.765.477-.294.114-.609.171-.945.171zm24.3-5.778v-1.314h-9.144v-4.5H237.4v5.814h10.728zm2.322 3.69v-1.332h-15.66v1.332h15.66zm-2.214 6.624v-1.35h-9.342v-3.726h-1.548v5.076h10.89zM84.184 38.204v-8.352h-2.232v8.352h2.232zm-8.784-.306c.636 0 1.221-.099 1.755-.297.534-.198.993-.468 1.377-.81s.684-.747.9-1.215c.216-.468.324-.978.324-1.53s-.111-1.068-.333-1.548c-.222-.48-.525-.894-.909-1.242s-.843-.621-1.377-.819c-.534-.198-1.113-.297-1.737-.297-.648 0-1.239.099-1.773.297-.534.198-.996.471-1.386.819-.39.348-.69.762-.9 1.242-.21.48-.315.996-.315 1.548s.108 1.062.324 1.53c.216.468.516.873.9 1.215.384.342.846.612 1.386.81.54.198 1.128.297 1.764.297zm-.018-1.836c-.66 0-1.176-.177-1.548-.531-.372-.354-.558-.849-.558-1.485 0-.648.189-1.149.567-1.503.378-.354.891-.531 1.539-.531.648 0 1.161.177 1.539.531.378.354.567.855.567 1.503 0 .636-.189 1.131-.567 1.485-.378.354-.891.531-1.539.531zm9.126 10.296V44.54h-8.802v-1.044h8.478v-4.59H73.528v1.8h8.442v1.026h-8.442v4.626h10.98zM98.944 35.9c.132-.72.246-1.542.342-2.466.096-.924.156-1.968.18-3.132H88.27v1.89h8.946c-.012.504-.06 1.05-.144 1.638-.084.588-.198 1.278-.342 2.07h2.214zm3.024 2.664V36.71h-8.082v-2.952H91.6v2.952h-5.4v1.854h15.768zm-2.448 7.722V39.23h-2.214v1.71h-6.48v-1.71H88.63v7.056h10.89zm-2.196-1.836h-6.516v-1.71h6.516v1.71zm22.284 2.088v-8.55h2.61V36.08h-2.61v-6.228h-2.232v16.686h2.232zm-11.736-3.402c1.32-.708 2.448-1.482 3.384-2.322.936-.84 1.71-1.755 2.322-2.745.612-.99 1.074-2.055 1.386-3.195.312-1.14.51-2.358.594-3.654-1.02.024-1.971.036-2.853.036h-5.463v1.908h1.908c1.332 0 2.664-.018 3.996-.054-.096.78-.291 1.56-.585 2.34-.294.78-.711 1.533-1.251 2.259-.54.726-1.215 1.416-2.025 2.07-.81.654-1.779 1.251-2.907 1.791l1.494 1.566zm28.512 3.402V29.852h-2.232v16.686h2.232zm-12.42-3.258c.888-.54 1.725-1.173 2.511-1.899s1.497-1.521 2.133-2.385c.54.732 1.107 1.413 1.701 2.043.594.63 1.263 1.215 2.007 1.755l1.548-1.602c-.828-.552-1.575-1.164-2.241-1.836-.666-.672-1.275-1.398-1.827-2.178.528-.936.939-1.905 1.233-2.907.294-1.002.453-2.013.477-3.033-1.02.012-1.932.021-2.736.027-.804.006-1.584.009-2.34.009h-2.826v1.908h3.627c.582 0 1.167-.012 1.755-.036-.06.6-.237 1.278-.531 2.034-.294.756-.711 1.524-1.251 2.304-.54.78-1.206 1.548-1.998 2.304-.792.756-1.71 1.434-2.754 2.034l1.512 1.458zm31.518 3.114v-8.712h2.826v-1.368h-2.826V29.96h-1.548v16.434h1.548zm-11.718-3.528c2.436-1.308 4.254-2.937 5.454-4.887 1.2-1.95 1.884-4.161 2.052-6.633-.852.024-1.698.036-2.538.036h-5.346v1.332h1.854c.72 0 1.44-.003 2.16-.009.72-.006 1.446-.021 2.178-.045-.12.9-.348 1.779-.684 2.637-.336.858-.783 1.677-1.341 2.457-.558.78-1.239 1.506-2.043 2.178-.804.672-1.734 1.272-2.79 1.8l1.044 1.134zm28.638 3.528V29.96h-1.548v16.434h1.548zm-5.976-14.49v-1.368h-5.094v1.368h5.094zM160 43.226c.9-.48 1.779-1.056 2.637-1.728.858-.672 1.641-1.44 2.349-2.304.48.684 1.011 1.311 1.593 1.881.582.57 1.203 1.119 1.863 1.647l1.134-1.188c-.696-.492-1.359-1.023-1.989-1.593-.63-.57-1.197-1.227-1.701-1.971.456-.708.831-1.452 1.125-2.232.294-.78.483-1.602.567-2.466-.852.024-1.671.036-2.457.036h-5.301v1.332h1.926c.672 0 1.338-.003 1.998-.009.66-.006 1.326-.021 1.998-.045-.144.684-.426 1.389-.846 2.115-.42.726-.933 1.425-1.539 2.097-.606.672-1.287 1.296-2.043 1.872-.756.576-1.548 1.062-2.376 1.458L160 43.226z"/>
        <path d="M27 0c14.912 0 27 12.088 27 27S41.912 54 27 54 0 41.912 0 27 12.088 0 27 0zm1.85 10.794h-9.401l-.216.004c-2.795.114-5.027 2.416-5.027 5.24v26.215h17.04v-7.865l.004-.216c.114-2.796 2.416-5.027 5.24-5.027h3.931l.217-.004c2.795-.114 5.026-2.416 5.026-5.24v-6.553l-.006-.134c-.067-.662-.625-1.177-1.304-1.177h-8.09l-.196-.007c-.645-.047-1.227-.329-1.658-.76l-3.707-3.708-.158-.146c-.488-.415-1.092-.622-1.696-.622zm-.226 26.216v2.62H16.828v-2.62h11.796zm.225-23.595l3.705 3.705.19.181c.965.877 2.204 1.358 3.52 1.358h6.779v5.243l-.005.165c-.086 1.369-1.227 2.456-2.617 2.456H27.315v2.622h3.324l-.204.236c-1.128 1.36-1.81 3.102-1.81 5.007H16.827V29.75l.236.204c1.36 1.127 3.101 1.811 5.007 1.811 1.447.001 2.62-1.172 2.62-2.62V16.037h-2.62v13.106l-.216-.004c-2.791-.113-5.027-2.419-5.027-5.238v-7.864l.005-.165c.085-1.37 1.225-2.457 2.616-2.457h9.4zm-.225 3.933c-.721 0-1.309.586-1.309 1.31 0 .725.588 1.311 1.31 1.311.724 0 1.31-.586 1.31-1.31 0-.725-.586-1.311-1.31-1.311z"/>
    </g>
</svg>
