<svg xmlns="http://www.w3.org/2000/svg" width="201" height="54" viewBox="0 0 201 54">
    <g fill="#FFF" fill-rule="evenodd">
        <path fill-rule="nonzero" d="M84.058 22.394V5.96H82.51v5.958h-3.276v1.35h3.276v9.126h1.548zM71.494 19.01c.936-.54 1.818-1.206 2.646-1.998.828-.792 1.572-1.674 2.232-2.646.528.792 1.095 1.536 1.701 2.232.606.696 1.269 1.32 1.989 1.872l1.152-1.116c-.804-.576-1.548-1.242-2.232-1.998-.684-.756-1.284-1.53-1.8-2.322.504-.9.9-1.827 1.188-2.781.288-.954.45-1.917.486-2.889-.852.024-1.674.036-2.466.036h-5.058v1.314h1.692c.672 0 1.335-.003 1.989-.009.654-.006 1.323-.021 2.007-.045-.072.72-.279 1.512-.621 2.376-.342.864-.798 1.722-1.368 2.574-.57.852-1.245 1.662-2.025 2.43-.78.768-1.65 1.41-2.61 1.926l1.098 1.044zm28.62-3.42V5.96h-1.548v1.89H93.94v1.206h4.644v1.404H93.94v1.224h4.626v3.906h1.548zm-8.586-1.026c.54 0 1.092-.021 1.656-.063.564-.042 1.11-.096 1.638-.162.528-.066 1.026-.141 1.494-.225.468-.084.876-.174 1.224-.27v-1.296c-.636.144-1.458.294-2.466.45-1.008.156-2.118.234-3.33.234h-2.628V6.536h-1.602v8.028h4.014zm8.586 7.884v-5.922h-10.62v1.35h9.072v4.572h1.548zm11.412-1.656c.648 0 1.239-.111 1.773-.333.534-.222.996-.537 1.386-.945.39-.408.69-.9.9-1.476.21-.576.315-1.218.315-1.926 0-.636-.09-1.224-.27-1.764-.18-.54-.441-1.008-.783-1.404-.342-.396-.762-.705-1.26-.927-.498-.222-1.071-.333-1.719-.333-.396 0-.765.054-1.107.162-.342.108-.654.255-.936.441-.282.186-.525.402-.729.648-.204.246-.366.501-.486.765h-.036c.024-.768.135-1.494.333-2.178.198-.684.474-1.287.828-1.809s.783-.936 1.287-1.242c.504-.306 1.074-.459 1.71-.459.456 0 .882.06 1.278.18s.762.282 1.098.486c.108.084.162.06.162-.072V7.274c-.372-.168-.768-.297-1.188-.387-.42-.09-.882-.135-1.386-.135-.996 0-1.848.228-2.556.684-.708.456-1.287 1.047-1.737 1.773-.45.726-.78 1.548-.99 2.466-.21.918-.315 1.839-.315 2.763 0 .732.057 1.473.171 2.223.114.75.333 1.431.657 2.043.324.612.774 1.113 1.35 1.503.576.39 1.326.585 2.25.585zm0-1.242c-.432 0-.822-.09-1.17-.27-.348-.18-.645-.42-.891-.72s-.432-.648-.558-1.044c-.126-.396-.189-.816-.189-1.26.036-.444.117-.867.243-1.269.126-.402.309-.756.549-1.062.24-.306.537-.546.891-.72.354-.174.771-.261 1.251-.261.456 0 .852.087 1.188.261.336.174.612.408.828.702.216.294.378.639.486 1.035.108.396.162.816.162 1.26 0 .408-.054.813-.162 1.215-.108.402-.276.759-.504 1.071-.228.312-.519.567-.873.765-.354.198-.771.297-1.251.297zm19.17 2.844V5.96h-1.548v16.434h1.548zm-12.924-3.6c.96-.696 1.803-1.503 2.529-2.421.726-.918 1.317-1.965 1.773-3.141.504 1.092 1.113 2.073 1.827 2.943.714.87 1.521 1.623 2.421 2.259l1.008-1.152c-1.092-.732-2.034-1.611-2.826-2.637-.792-1.026-1.404-2.157-1.836-3.393.132-.648.234-1.326.306-2.034.072-.708.096-1.458.072-2.25h-1.638c.096 1.356.039 2.586-.171 3.69-.21 1.104-.531 2.097-.963 2.979-.432.882-.96 1.665-1.584 2.349-.624.684-1.302 1.29-2.034 1.818l1.116.99zm33.012 3.6V5.96h-1.548v16.434h1.548zm-8.874-3.726c.588 0 1.14-.126 1.656-.378s.963-.624 1.341-1.116c.378-.492.675-1.107.891-1.845.216-.738.324-1.587.324-2.547 0-.96-.108-1.806-.324-2.538-.216-.732-.513-1.344-.891-1.836s-.825-.864-1.341-1.116c-.516-.252-1.068-.378-1.656-.378-.588 0-1.137.126-1.647.378s-.957.624-1.341 1.116c-.384.492-.687 1.104-.909 1.836-.222.732-.333 1.578-.333 2.538 0 .96.111 1.809.333 2.547.222.738.525 1.353.909 1.845s.831.864 1.341 1.116c.51.252 1.059.378 1.647.378zm0-1.368c-.42 0-.795-.111-1.125-.333-.33-.222-.606-.531-.828-.927-.222-.396-.393-.87-.513-1.422-.12-.552-.18-1.164-.18-1.836 0-.672.06-1.284.18-1.836s.291-1.026.513-1.422c.222-.396.498-.702.828-.918.33-.216.705-.324 1.125-.324.42 0 .795.108 1.125.324.33.216.606.522.828.918.222.396.393.87.513 1.422.12.552.18 1.164.18 1.836 0 .672-.06 1.284-.18 1.836s-.291 1.026-.513 1.422c-.222.396-.498.705-.828.927-.33.222-.705.333-1.125.333zm24.93.9V5.96h-1.548v4.194h-2.862v1.368h2.862V18.2h1.548zm-12.582-2.232c.936-.42 1.83-.912 2.682-1.476.852-.564 1.626-1.212 2.322-1.944.516.612 1.095 1.179 1.737 1.701.642.522 1.293.963 1.953 1.323l.99-1.152c-.324-.156-.66-.342-1.008-.558-.348-.216-.69-.45-1.026-.702-.336-.252-.657-.519-.963-.801-.306-.282-.573-.573-.801-.873.468-.648.858-1.347 1.17-2.097.312-.75.522-1.563.63-2.439-.852.024-1.668.036-2.448.036h-5.148v1.332h1.674c.66 0 1.317-.003 1.971-.009.654-.006 1.317-.021 1.989-.045-.132.588-.372 1.185-.72 1.791-.348.606-.804 1.194-1.368 1.764-.564.57-1.233 1.113-2.007 1.629s-1.647.972-2.619 1.368l.99 1.152zM167.2 22.07v-1.35h-8.874v-3.456h-1.566v4.806h10.44zM72.088 37.664c1.164-.288 2.268-.627 3.312-1.017 1.044-.39 2.01-.837 2.898-1.341.864.504 1.773.942 2.727 1.314.954.372 1.959.69 3.015.954l.774-1.314c-.972-.204-1.896-.456-2.772-.756-.876-.3-1.692-.636-2.448-1.008.696-.504 1.299-1.041 1.809-1.611.51-.57.915-1.191 1.215-1.863.06-.096.066-.198.018-.306-.048-.108-.138-.156-.27-.144-.852.024-1.671.036-2.457.036h-6.993v1.332H76.3c.672 0 1.338-.003 1.998-.009.66-.006 1.332-.027 2.016-.063-.312.432-.744.861-1.296 1.287-.552.426-1.206.837-1.962 1.233-.756.396-1.614.765-2.574 1.107-.96.342-2.01.633-3.15.873l.756 1.296zm6.858 8.64v-5.868h6.732v-1.35h-15.3v1.35h6.984v5.868h1.584zm20.34-10.008V30.41H88.864v5.886h10.422zm-1.584-1.314h-7.254v-3.204h7.254v3.204zm-2.43 8.01V39.5h6.642v-1.332h-15.66V39.5h7.416v3.492h1.602zm4.644 3.15v-1.35h-9.522v-3.546h-1.548v4.896h11.07zm20.286.252V29.96h-1.548v16.434h1.548zm-12.924-3.6c.96-.696 1.803-1.503 2.529-2.421.726-.918 1.317-1.965 1.773-3.141.504 1.092 1.113 2.073 1.827 2.943.714.87 1.521 1.623 2.421 2.259l1.008-1.152c-1.092-.732-2.034-1.611-2.826-2.637-.792-1.026-1.404-2.157-1.836-3.393.132-.648.234-1.326.306-2.034.072-.708.096-1.458.072-2.25h-1.638c.096 1.356.039 2.586-.171 3.69-.21 1.104-.531 2.097-.963 2.979-.432.882-.96 1.665-1.584 2.349-.624.684-1.302 1.29-2.034 1.818l1.116.99zm34.704 1.422v-1.854h-6.57v-2.664c.684-.096 1.299-.276 1.845-.54s1.014-.588 1.404-.972c.39-.384.687-.828.891-1.332.204-.504.306-1.05.306-1.638 0-.66-.132-1.275-.396-1.845-.264-.57-.639-1.062-1.125-1.476-.486-.414-1.074-.738-1.764-.972-.69-.234-1.461-.351-2.313-.351-.852 0-1.623.117-2.313.351-.69.234-1.278.558-1.764.972-.486.414-.861.906-1.125 1.476s-.396 1.185-.396 1.845c0 .588.102 1.134.306 1.638.204.504.501.948.891 1.332.39.384.858.708 1.404.972.546.264 1.161.444 1.845.54v2.664h-6.57v1.854h15.444zm-7.722-6.246c-.528 0-.999-.069-1.413-.207-.414-.138-.762-.33-1.044-.576-.282-.246-.498-.537-.648-.873-.15-.336-.225-.702-.225-1.098 0-.396.075-.765.225-1.107.15-.342.366-.639.648-.891.282-.252.63-.447 1.044-.585.414-.138.885-.207 1.413-.207s.999.069 1.413.207c.414.138.762.333 1.044.585.282.252.498.549.648.891.15.342.225.711.225 1.107s-.075.762-.225 1.098c-.15.336-.366.627-.648.873-.282.246-.63.438-1.044.576-.414.138-.885.207-1.413.207zm21.69-3.06v-1.818h-8.802v-3.186h-2.232v5.004h11.034zm2.25 2.934v-1.8h-15.768v1.8H158.2zm-2.016 8.694V44.72h-9.126v-1.116h8.712v-4.572h-10.926v1.8h8.694v1.08h-8.694v4.626h11.34zm17.1-15.228v-1.62h-6.336v1.62h6.336zm2.934 5.58l1.044-1.512c-.876-.108-1.683-.231-2.421-.369-.738-.138-1.449-.291-2.133-.459.576-.312 1.077-.639 1.503-.981.426-.342.747-.687.963-1.035.144-.444.012-.666-.396-.666-1.164.024-2.316.036-3.456.036h-6.372v1.584h2.916c.648-.012 1.29-.021 1.926-.027.636-.006 1.278-.021 1.926-.045-.192.132-.531.291-1.017.477-.486.186-1.083.378-1.791.576-.708.198-1.506.381-2.394.549-.888.168-1.818.294-2.79.378l.9 1.494c.96-.072 1.956-.231 2.988-.477 1.032-.246 2.022-.549 2.97-.909.9.336 1.812.615 2.736.837.924.222 1.89.405 2.898.549zm.126 9.648v-1.584h-9.252v-.918h8.82v-4.032h-4.428v-1.116h6.804v-1.602H162.52v1.602h6.714v1.116h-4.374v1.656h8.838v.9h-8.838v3.978h11.484zm15.516-8.406v-3.24h2.502v-1.854h-2.502v-3.186h-2.214v8.28h2.214zm-4.662-.486v-7.308h-2.16v2.16H181.6v-2.16h-2.196v7.308h7.794zm-2.142-1.728h-3.474V34.19h3.474v1.728zm7.146 10.44V44.54h-8.676v-1.134h8.334v-4.572h-10.548v1.818h8.352v.972h-8.352v4.734h10.89z"/>
        <path d="M27 0c14.912 0 27 12.088 27 27S41.912 54 27 54 0 41.912 0 27 12.088 0 27 0zm1.121 17c-.766-4.435-4.819-7.616-9.384-7.217-.687.06-1.196.667-1.136 1.354.06.688.667 1.197 1.354 1.137 3.439-.301 6.47 2.243 6.771 5.681.301 3.439-2.243 6.47-5.681 6.771-3.439.301-6.47-2.243-6.771-5.681-.06-.688-.667-1.197-1.354-1.137-.688.06-1.197.667-1.137 1.355.12 1.37.55 2.64 1.215 3.744L12 36c0 .552.448 1 1 1h4c0 2.21 1.79 4 4 4s4-1.79 4-4h5c0 2.21 1.79 4 4 4s4-1.79 4-4h5c.552 0 1-.448 1-1v-9.563l-3.1-4.215C40.333 21.454 39.436 21 38.482 21H35v-3c0-.552-.448-1-1-1zM21 35.5c.828 0 1.5.672 1.5 1.5s-.672 1.5-1.5 1.5-1.5-.672-1.5-1.5.672-1.5 1.5-1.5zm13 0c.828 0 1.5.672 1.5 1.5s-.672 1.5-1.5 1.5-1.5-.672-1.5-1.5.672-1.5 1.5-1.5zm7.5-7v6l-4.378-.001c-.533-.664-1.272-1.154-2.121-1.373L35 28.5h6.5zm-9-9v13.791c-.64.259-1.197.678-1.622 1.208h-6.756C23.389 33.585 22.262 33 21 33c-1.263 0-2.389.585-3.122 1.499L14.5 34.5l-.001-8.82c1.623 1.132 3.638 1.723 5.764 1.537 4.215-.37 7.47-3.67 7.931-7.717H32.5zm5.983 4l.094.009c.122.023.233.092.308.195L40.575 26H35v-2.5h3.483zM19 13.75c-.69 0-1.25.56-1.25 1.25v3.494l.008.139c.04.366.242.699.554.905l1.905 1.255.118.07c.56.287 1.259.113 1.614-.425l.068-.118c.288-.56.114-1.26-.424-1.614l-1.343-.886V15l-.007-.128c-.064-.63-.596-1.122-1.243-1.122zm-6.611.45c-.68-.12-1.329.334-1.448 1.014-.12.68.334 1.328 1.014 1.448.68.12 1.328-.334 1.448-1.014.12-.68-.334-1.328-1.014-1.448zm2.664-3.592c-.68-.12-1.328.334-1.448 1.014-.12.68.334 1.328 1.014 1.448.68.12 1.328-.334 1.448-1.014.12-.68-.334-1.328-1.014-1.448z"/>
    </g>
</svg>
