<svg xmlns="http://www.w3.org/2000/svg" width="201" height="54" viewBox="0 0 201 54">
    <g fill="#FFF" fill-rule="evenodd">
        <path fill-rule="nonzero" d="M75.166 20.81c.732 0 1.371-.108 1.917-.324.546-.216 1.005-.504 1.377-.864.372-.36.651-.777.837-1.251.186-.474.279-.963.279-1.467 0-1.008-.246-1.779-.738-2.313-.492-.534-1.17-.897-2.034-1.089v-.036c.36-.072.69-.204.99-.396.3-.192.558-.429.774-.711.216-.282.384-.6.504-.954s.18-.741.18-1.161c0-.576-.102-1.083-.306-1.521-.204-.438-.489-.804-.855-1.098-.366-.294-.804-.513-1.314-.657-.51-.144-1.065-.216-1.665-.216-.396 0-.777.036-1.143.108-.366.072-.705.165-1.017.279-.312.114-.594.243-.846.387-.252.144-.468.294-.648.45v1.332c0 .072.021.114.063.126.042.012.087 0 .135-.036.528-.468 1.098-.816 1.71-1.044.612-.228 1.206-.342 1.782-.342.72 0 1.317.186 1.791.558.474.372.711.96.711 1.764 0 .516-.09.936-.27 1.26-.18.324-.42.579-.72.765-.3.186-.648.318-1.044.396-.396.078-.81.123-1.242.135h-.216v1.278h.486c2.232 0 3.348.93 3.348 2.79 0 .384-.072.732-.216 1.044-.144.312-.342.585-.594.819-.252.234-.546.414-.882.54-.336.126-.702.189-1.098.189-.708 0-1.377-.117-2.007-.351-.63-.234-1.269-.621-1.917-1.161-.06-.06-.111-.081-.153-.063-.042.018-.063.069-.063.153v1.296c.456.432 1.053.768 1.791 1.008s1.509.366 2.313.378zm18.612-3.006V11.9h2.592v-1.368h-2.592V5.978H92.23v11.826h1.548zm-4.734-3.06v-7.92h-7.452v7.92h7.452zm-1.512-1.332h-4.41V8.138h4.41v5.274zm6.606 8.658v-1.35h-8.694v-3.69h-1.566v5.04h10.26zm16.902-2.88V5.96h-1.548v9.918h-3.762v1.314h3.762v1.998h1.548zm-8.1-6.552c.648 0 1.23-.081 1.746-.243.516-.162.954-.387 1.314-.675.36-.288.639-.63.837-1.026.198-.396.297-.828.297-1.296 0-.468-.099-.9-.297-1.296-.198-.396-.477-.738-.837-1.026-.36-.288-.798-.513-1.314-.675-.516-.162-1.098-.243-1.746-.243-.648 0-1.23.081-1.746.243-.516.162-.954.387-1.314.675-.36.288-.639.63-.837 1.026-.198.396-.297.828-.297 1.296 0 .468.099.9.297 1.296.198.396.477.738.837 1.026.36.288.798.513 1.314.675.516.162 1.098.243 1.746.243zm0-1.296c-.48 0-.885-.063-1.215-.189-.33-.126-.597-.282-.801-.468-.204-.186-.351-.396-.441-.63-.09-.234-.135-.459-.135-.675 0-.216.045-.441.135-.675.09-.234.237-.447.441-.639.204-.192.471-.348.801-.468.33-.12.735-.18 1.215-.18.48 0 .885.06 1.215.18.33.12.597.276.801.468.204.192.351.405.441.639.09.234.135.459.135.675 0 .216-.045.441-.135.675-.09.234-.237.444-.441.63-.204.186-.471.342-.801.468-.33.126-.735.189-1.215.189zm.846 7.218v-3.654c.852-.048 1.683-.105 2.493-.171.81-.066 1.557-.147 2.241-.243v-1.26c-.576.072-1.215.138-1.917.198s-1.422.108-2.16.144c-.738.036-1.467.063-2.187.081-.72.018-1.38.027-1.98.027h-2.97v1.314h3.933c.318 0 .645-.012.981-.036v3.6h1.566zm7.524 3.51v-1.332h-9.9V17.84h-1.53v4.23h11.43zm19.386.324V5.96h-1.548v16.434h1.548zm-8.874-3.726c.588 0 1.14-.126 1.656-.378s.963-.624 1.341-1.116c.378-.492.675-1.107.891-1.845.216-.738.324-1.587.324-2.547 0-.96-.108-1.806-.324-2.538-.216-.732-.513-1.344-.891-1.836s-.825-.864-1.341-1.116c-.516-.252-1.068-.378-1.656-.378-.588 0-1.137.126-1.647.378s-.957.624-1.341 1.116c-.384.492-.687 1.104-.909 1.836-.222.732-.333 1.578-.333 2.538 0 .96.111 1.809.333 2.547.222.738.525 1.353.909 1.845s.831.864 1.341 1.116c.51.252 1.059.378 1.647.378zm0-1.368c-.42 0-.795-.111-1.125-.333-.33-.222-.606-.531-.828-.927-.222-.396-.393-.87-.513-1.422-.12-.552-.18-1.164-.18-1.836 0-.672.06-1.284.18-1.836s.291-1.026.513-1.422c.222-.396.498-.702.828-.918.33-.216.705-.324 1.125-.324.42 0 .795.108 1.125.324.33.216.606.522.828.918.222.396.393.87.513 1.422.12.552.18 1.164.18 1.836 0 .672-.06 1.284-.18 1.836s-.291 1.026-.513 1.422c-.222.396-.498.705-.828.927-.33.222-.705.333-1.125.333zm24.156-1.368V11.54h2.592v-1.368h-2.592V5.96h-1.548v9.972h1.548zm-12.078-.738c.9-.504 1.695-1.107 2.385-1.809.69-.702 1.251-1.509 1.683-2.421.468.78 1.038 1.488 1.71 2.124.672.636 1.44 1.176 2.304 1.62l.954-1.098c-1.008-.504-1.863-1.101-2.565-1.791s-1.305-1.509-1.809-2.457c.12-.456.21-.933.27-1.431.06-.498.084-1.017.072-1.557h-1.602c.096 1.8-.237 3.33-.999 4.59-.762 1.26-1.917 2.328-3.465 3.204l1.062 1.026zm6.93 7.344c.876 0 1.647-.081 2.313-.243.666-.162 1.224-.387 1.674-.675.45-.288.786-.63 1.008-1.026.222-.396.333-.828.333-1.296 0-.936-.444-1.698-1.332-2.286-.888-.588-2.22-.882-3.996-.882-1.776 0-3.108.294-3.996.882-.888.588-1.332 1.35-1.332 2.286 0 .468.111.9.333 1.296.222.396.558.738 1.008 1.026.45.288 1.005.513 1.665.675.66.162 1.434.243 2.322.243zm0-1.332c-1.272 0-2.211-.18-2.817-.54-.606-.36-.909-.804-.909-1.332s.303-.972.909-1.332c.606-.36 1.545-.54 2.817-.54.648 0 1.203.048 1.665.144.462.096.846.228 1.152.396.306.168.531.366.675.594.144.228.216.474.216.738 0 .528-.297.972-.891 1.332-.594.36-1.533.54-2.817.54zm20.934 1.098v-7.038h6.696v-1.314h-2.88c.072-.468.144-.996.216-1.584.072-.588.141-1.2.207-1.836.066-.636.117-1.284.153-1.944.036-.66.054-1.296.054-1.908H155.5v1.332h9.144c0 .432-.015.897-.045 1.395s-.069 1.005-.117 1.521-.108 1.032-.18 1.548-.144 1.008-.216 1.476H153.16v1.314h7.02v7.038h1.584zm21.402.09V5.96h-1.548v5.796h-1.872V6.14h-1.512v15.84h1.512v-8.892h1.872v9.306h1.548zm-6.822-4.536V7.382h-6.282v10.476h6.282zm-1.494-1.314h-3.276V8.678h3.276v7.866zm24.102 5.85V5.96h-1.548v16.434h1.548zm-12.924-3.6c.96-.696 1.803-1.503 2.529-2.421.726-.918 1.317-1.965 1.773-3.141.504 1.092 1.113 2.073 1.827 2.943.714.87 1.521 1.623 2.421 2.259l1.008-1.152c-1.092-.732-2.034-1.611-2.826-2.637-.792-1.026-1.404-2.157-1.836-3.393.132-.648.234-1.326.306-2.034.072-.708.096-1.458.072-2.25h-1.638c.096 1.356.039 2.586-.171 3.69-.21 1.104-.531 2.097-.963 2.979-.432.882-.96 1.665-1.584 2.349-.624.684-1.302 1.29-2.034 1.818l1.116.99zM83.392 37.466v-7.038H72.664v7.038h10.728zm-2.214-1.836H74.86v-3.312h6.318v3.312zm-2.016 10.818V41.03h6.588v-1.854H70.306v1.854h6.588v5.418h2.268zm22.626-2.286v-1.854h-4.122v-2.34h2.232v-1.854h-8.91v-1.746h8.406v-5.454h-10.62v1.89h8.388v1.746h-8.37v5.418h2.142v2.34h-4.59v1.854h15.444zm-6.318-1.854h-2.34v-2.34h2.34v2.34zm21.06 4.23V29.852h-2.124v5.688h-1.314v-5.508h-2.07v16.092h2.07v-8.712h1.314v9.126h2.124zm-6.786-4.428V31.112h-2.106v3.96h-2.304v-3.96h-2.142V42.11h6.552zm-2.106-1.836h-2.304v-3.402h2.304v3.402zm12.708-3.672c.504-.084 1.017-.219 1.539-.405.522-.186 1.029-.408 1.521-.666.492-.258.957-.552 1.395-.882.438-.33.837-.687 1.197-1.071.72.696 1.569 1.299 2.547 1.809.978.51 2.067.873 3.267 1.089L133 34.73c-1.2-.18-2.325-.51-3.375-.99-1.05-.48-1.881-1.092-2.493-1.836.3-.672.432-1.356.396-2.052h-2.286c.012.624-.126 1.206-.414 1.746s-.696 1.026-1.224 1.458c-.528.432-1.167.807-1.917 1.125-.75.318-1.581.567-2.493.747l1.152 1.674zm13.734 2.826v-1.872h-6.732v-2.07h-2.25v2.07h-6.786v1.872h15.768zm-7.884 7.236c.924 0 1.743-.078 2.457-.234.714-.156 1.314-.378 1.8-.666.486-.288.852-.63 1.098-1.026.246-.396.369-.828.369-1.296 0-.96-.489-1.731-1.467-2.313-.978-.582-2.397-.873-4.257-.873-1.86 0-3.279.291-4.257.873-.978.582-1.467 1.353-1.467 2.313 0 .468.123.9.369 1.296s.609.738 1.089 1.026c.48.288 1.077.51 1.791.666.714.156 1.539.234 2.475.234zm0-1.764c-.636 0-1.17-.042-1.602-.126-.432-.084-.78-.192-1.044-.324s-.453-.288-.567-.468c-.114-.18-.171-.36-.171-.54 0-.18.057-.357.171-.531.114-.174.303-.327.567-.459.264-.132.612-.237 1.044-.315.432-.078.966-.117 1.602-.117.636 0 1.17.039 1.602.117.432.078.78.183 1.044.315s.453.285.567.459c.114.174.171.351.171.531 0 .18-.057.36-.171.54-.114.18-.303.336-.567.468-.264.132-.612.24-1.044.324-.432.084-.966.126-1.602.126z"/>
        <path d="M27 0c14.912 0 27 12.088 27 27S41.912 54 27 54 0 41.912 0 27 12.088 0 27 0zm5.475 11.023c-.781-.78-2.047-.78-2.828 0L14.643 26.027c-.377.377-.587.887-.586 1.42l.028 11.285c.003 1.1.895 1.992 1.995 1.995l11.286.028c.532.002 1.042-.21 1.419-.585l15.004-15.004c.78-.782.78-2.048 0-2.829zm-1.415 2.122l10.607 10.607-14.504 14.503-10.58-.026-.026-10.58L31.06 13.144zm-9.81 20.417c-.586-.585-1.536-.585-2.121 0-.586.586-.586 1.536 0 2.122.585.585 1.535.585 2.12 0 .587-.586.587-1.536 0-2.122zm2.237-5.723l-.032.006-.027.019-1.782 1.782-.018.027-.007.032.007.032.018.027 3.346 3.346.027.019.033.006.032-.006.027-.019.703-.702.018-.028.007-.032-.007-.032-.018-.027-1.297-1.297-.011-.017v-.016l.011-.017.545-.544.018-.027.006-.032-.006-.033-.018-.027-.59-.589-.027-.018-.032-.007-.032.007-.027.018-.545.545-.016.01h-.017l-.016-.01-.624-.624-.01-.016v-.017l.01-.016.995-.995.019-.028.006-.032-.006-.032-.019-.027-.584-.584-.027-.019-.033-.006zm3.424-2.424c-.244-.082-.486-.094-.725-.037-.192.046-.368.135-.528.267l-.118.107-1.064 1.064-.019.027-.006.033.006.032.019.027 3.346 3.346.027.019.032.006.032-.006.027-.019.703-.703.019-.027.006-.032-.006-.032-.019-.028-1.296-1.297-.011-.016v-.017l.01-.016.075-.074.014-.01.014-.001.016.006 1.649.975.028.01c.018.005.036.004.053-.003l.037-.027.723-.723.02-.026c.01-.018.011-.036.003-.052l-.018-.026-.025-.014-1.866-1.015-.012-.007-.005-.01c-.002-.009-.001-.018.002-.028.033-.21.01-.424-.069-.638-.08-.215-.211-.414-.396-.599-.208-.208-.434-.353-.678-.436zm-.495 1.065c.119.013.24.08.361.203.116.115.18.232.193.351.014.119-.024.223-.114.312l-.138.138-.017.011h-.016l-.017-.01-.702-.703c-.011-.011-.015-.022-.011-.033l.01-.017.14-.139.069-.057c.072-.047.153-.066.242-.056zm2.998-4.567l-.032.006-.028.018-1.782 1.782-.018.028-.006.032.006.032.018.027 3.346 3.346.028.019.032.006.032-.006.027-.019 1.782-1.782.019-.027.006-.032-.006-.032-.019-.027-.584-.585-.027-.018-.032-.006-.032.006-.028.018-.995.995-.016.011h-.017l-.016-.01-.629-.63-.01-.016v-.016l.01-.017.545-.544.018-.027.007-.033-.007-.032-.018-.027-.59-.59-.026-.018-.033-.006-.032.006-.027.019-.545.544-.016.011h-.017l-.016-.01-.624-.624-.01-.017v-.016l.01-.017.995-.995.019-.027.006-.032-.006-.032-.019-.027-.584-.585-.027-.018-.032-.006zm2.899-2.9l-.033.007-.027.019-1.782 1.782-.018.027-.007.032.007.032.018.027 3.346 3.346.027.019.033.006.032-.006.027-.019 1.782-1.781.019-.028.006-.032-.006-.032-.019-.027-.584-.584-.027-.019-.033-.006-.032.006-.027.019-.995.995-.016.01h-.017l-.016-.01-.629-.63-.01-.016v-.016l.01-.017.545-.544.018-.027.006-.032-.006-.033-.018-.027-.59-.589-.027-.018-.032-.007-.032.007-.027.018-.545.545-.016.01H32.6l-.016-.01-.624-.624-.01-.017v-.016l.01-.017.995-.994.019-.028.006-.032-.006-.032-.019-.027-.584-.584-.027-.019-.032-.006z"/>
    </g>
</svg>
