<svg xmlns="http://www.w3.org/2000/svg" width="328" height="32" viewBox="0 0 328 32">
    <g fill="none" fill-rule="evenodd">
        <path fill="#3C3C43" fill-opacity=".18" fill-rule="nonzero" d="M312.565 0H15.435C6.911 0 0 7.163 0 16s6.91 16 15.435 16h297.13C321.089 32 328 24.837 328 16s-6.91-16-15.435-16zm-.03 1c7.99 0 14.468 6.716 14.468 15 0 8.284-6.477 15-14.468 15H15.465C7.475 31 .997 24.284.997 16c0-8.284 6.477-15 14.468-15h297.07z"/>
        <path fill="#3C3C43" fill-opacity=".6" fill-rule="nonzero" d="M189.756 16.352c.653 0 1.248-.068 1.785-.203.536-.135.994-.324 1.371-.567.379-.243.67-.534.875-.875.206-.34.308-.716.308-1.127v-.504c0-.41-.102-.786-.308-1.127-.205-.34-.496-.632-.875-.875-.377-.243-.835-.432-1.371-.567-.537-.135-1.132-.203-1.785-.203-.663 0-1.26.068-1.792.203s-.988.324-1.365.567c-.379.243-.67.534-.875.875-.206.34-.308.716-.308 1.127v.504c0 .41.102.786.308 1.127.205.34.496.632.875.875.377.243.833.432 1.365.567.531.135 1.129.203 1.792.203zm0-1.204c-.448 0-.857-.04-1.226-.119-.368-.08-.68-.189-.938-.329-.256-.14-.457-.308-.602-.504-.144-.196-.216-.41-.216-.644v-.448c0-.233.072-.448.216-.644.145-.196.346-.364.602-.504.257-.14.57-.25.938-.329.37-.08.778-.119 1.226-.119.447 0 .856.04 1.225.119.368.08.68.189.938.329.256.14.457.308.601.504.145.196.218.41.218.644v.448c0 .233-.073.448-.218.644-.144.196-.345.364-.602.504-.256.14-.569.25-.938.329-.368.08-.776.119-1.224.119zm-1.554 7.784v-4.214h3.108v4.214h1.386v-4.214h2.982v-1.176h-11.845v1.176h2.982v4.214h1.387zm19.778-5.026v-1.148h-5.236v-1.022h3.5v-1.134h-7.014v-.938h6.86v-1.12h-6.86v-.924h6.93v-1.134h-8.288v5.25h3.472v1.022h-5.208v1.148h11.844zm-5.922 5.432c.616 0 1.174-.056 1.673-.168.5-.112.924-.266 1.274-.462s.618-.427.805-.693c.187-.266.28-.558.28-.875v-.42c0-.317-.096-.611-.287-.882-.191-.27-.462-.504-.812-.7-.35-.196-.772-.348-1.267-.455-.495-.107-1.05-.161-1.666-.161-.616 0-1.174.054-1.673.161-.5.107-.924.257-1.274.448s-.618.422-.805.693c-.187.27-.28.57-.28.896v.42c0 .317.093.611.28.882.187.27.455.504.805.7.35.196.775.348 1.274.455.5.107 1.057.161 1.673.161zm0-1.134c-.392 0-.751-.03-1.078-.091-.327-.06-.607-.145-.84-.252-.233-.107-.415-.229-.546-.364-.13-.135-.196-.282-.196-.441v-.252c0-.15.065-.294.196-.434.13-.14.313-.264.546-.371.233-.107.513-.191.84-.252.327-.06.686-.091 1.078-.091s.751.03 1.078.091c.327.06.607.145.84.252.233.107.415.231.546.371.13.14.196.285.196.434v.252c0 .159-.065.306-.196.441-.13.135-.313.257-.546.364-.233.107-.513.191-.84.252-.327.06-.686.091-1.078.091zm17.077.756V10.052h-1.386V22.96h1.386zm-9.422-2.814c.849-.513 1.57-.97 2.162-1.372.593-.401 1.088-.77 1.484-1.106.397-.336.705-.651.924-.945.22-.294.386-.593.498-.896.112-.303.18-.625.202-.966.024-.34.035-.721.035-1.141v-2.478h-5.781v1.19h4.41v1.274c0 .336-.012.64-.035.91-.024.27-.084.53-.183.777-.097.247-.244.495-.44.742-.197.247-.467.513-.813.798-.345.285-.776.597-1.294.938-.519.34-1.15.73-1.898 1.169l.728 1.106zm18.588-7.49V11.48h-3.01V9.926h-1.372v1.554h-3.024v1.176h7.406zm2.632 6.762v-4.326h1.834v-1.204h-1.834v-3.836h-1.372v9.366h1.372zm-6.328-1.092c.504 0 .943-.068 1.316-.203.373-.135.686-.315.938-.539.252-.224.441-.478.567-.763.126-.285.189-.576.189-.875v-.42c0-.299-.063-.59-.189-.875-.126-.285-.315-.539-.567-.763-.252-.224-.565-.404-.938-.539s-.812-.203-1.316-.203-.943.068-1.316.203c-.373.135-.686.313-.938.532-.252.22-.441.471-.567.756-.126.285-.189.581-.189.889v.42c0 .299.063.59.189.875.126.285.315.539.567.763.252.224.565.404.938.539s.812.203 1.316.203zm0-1.106c-.28 0-.527-.037-.742-.112-.215-.075-.392-.175-.532-.301s-.245-.27-.315-.434c-.07-.163-.105-.329-.105-.497v-.28c0-.168.035-.334.105-.497.07-.163.175-.308.315-.434s.315-.226.525-.301c.21-.075.46-.112.749-.112.29 0 .539.037.749.112.21.075.385.175.525.301s.245.27.315.434c.07.163.105.329.105.497v.28c0 .168-.035.334-.105.497-.07.163-.175.308-.315.434s-.317.226-.532.301c-.215.075-.462.112-.742.112zm6.678 5.6v-1.204h-6.846V19.25h-1.386v3.57h8.232zm10.325-1.456V11.27h-1.162l-3.248 1.904.658 1.12 2.366-1.4v8.47h1.386zm6.422.154c1.214 0 2.112-.38 2.696-1.141.583-.76.875-1.855.875-3.283v-1.568c0-1.419-.297-2.508-.89-3.269-.592-.76-1.486-1.141-2.68-1.141-1.186 0-2.077.38-2.674 1.141-.598.76-.897 1.85-.897 3.269v1.568c0 1.419.294 2.51.882 3.276.588.765 1.484 1.148 2.688 1.148zm0-1.288c-.298 0-.578-.047-.84-.14-.26-.093-.49-.257-.685-.49-.196-.233-.35-.553-.463-.959-.112-.406-.167-.917-.167-1.533v-1.596c0-.616.055-1.122.167-1.519.113-.397.267-.714.463-.952s.424-.404.685-.497c.262-.093.542-.14.84-.14.309 0 .593.047.855.14.26.093.49.257.686.49.196.233.347.55.454.952.108.401.161.91.161 1.526v1.596c0 .625-.053 1.139-.16 1.54-.108.401-.26.719-.456.952-.195.233-.424.397-.685.49-.262.093-.546.14-.855.14zm8.103 1.288c1.213 0 2.112-.38 2.695-1.141.583-.76.875-1.855.875-3.283v-1.568c0-1.419-.296-2.508-.889-3.269-.593-.76-1.486-1.141-2.681-1.141-1.185 0-2.077.38-2.674 1.141-.597.76-.896 1.85-.896 3.269v1.568c0 1.419.294 2.51.882 3.276.588.765 1.484 1.148 2.688 1.148zm0-1.288c-.299 0-.579-.047-.84-.14-.261-.093-.49-.257-.686-.49-.196-.233-.35-.553-.462-.959-.112-.406-.168-.917-.168-1.533v-1.596c0-.616.056-1.122.168-1.519.112-.397.266-.714.462-.952s.425-.404.686-.497c.261-.093.541-.14.84-.14.308 0 .593.047.854.14.261.093.49.257.686.49.196.233.348.55.455.952.107.401.161.91.161 1.526v1.596c0 .625-.054 1.139-.161 1.54-.107.401-.259.719-.455.952-.196.233-.425.397-.686.49-.261.093-.546.14-.854.14zm7.01-3.794c.71 0 1.268-.21 1.674-.63.406-.42.608-.999.608-1.736v-.588c0-.737-.202-1.316-.608-1.736-.406-.42-.964-.63-1.673-.63-.71 0-1.267.21-1.673.63-.406.42-.61.999-.61 1.736v.588c0 .737.204 1.316.61 1.736.406.42.963.63 1.673.63zm.687 4.914l6.02-10.08h-1.247l-6.034 10.08h1.26zm-.686-5.866c-.794 0-1.19-.48-1.19-1.442v-.532c0-.961.396-1.442 1.19-1.442.793 0 1.19.48 1.19 1.442v.532c0 .961-.397 1.442-1.19 1.442zm6.145 5.992c.71 0 1.268-.21 1.673-.63.406-.42.61-.999.61-1.736v-.588c0-.737-.204-1.316-.61-1.736-.405-.42-.963-.63-1.673-.63-.709 0-1.267.21-1.673.63-.405.42-.608.999-.608 1.736v.588c0 .737.203 1.316.608 1.736.406.42.964.63 1.673.63zm0-.952c-.793 0-1.19-.48-1.19-1.442v-.532c0-.961.397-1.442 1.19-1.442.794 0 1.19.48 1.19 1.442v.532c0 .961-.396 1.442-1.19 1.442zm17.228-2.828v-7.644h-1.33v3.164h-1.303V10.22h-1.316v7.448h1.317v-3.262h1.302v3.29h1.33zm-10.234-.056c.42-.336.786-.642 1.099-.917.312-.275.562-.511.748-.707.131-.13.271-.282.42-.455.15-.173.238-.31.267-.413h.013c.038.103.127.226.267.371s.303.301.49.469c.205.187.427.385.665.595.238.21.515.441.832.693l.827-.98c-.346-.252-.656-.495-.932-.728-.275-.233-.534-.471-.776-.714-.168-.159-.3-.301-.392-.427-.094-.126-.166-.254-.217-.385-.052-.13-.084-.27-.099-.42-.014-.15-.02-.322-.02-.518v-.35h2.03v-1.148h-2.03v-1.54h-1.345v1.54h-2.197v1.148h2.197v.42c0 .215-.009.399-.027.553-.02.154-.054.294-.106.42-.05.126-.12.252-.21.378-.088.126-.202.264-.342.413-.197.215-.462.471-.798.77-.337.299-.743.625-1.219.98l.855.952zm10.233 5.446v-4.718h-8.47v1.19h7.084v3.528h1.387zm12.023-5.796v-7.238h-1.372v7.238h1.372zm-6.93-.602c.55 0 1.029-.091 1.435-.273.406-.182.74-.413 1.001-.693.261-.28.455-.583.581-.91.126-.327.189-.63.189-.91V13.3c0-.28-.063-.583-.189-.91-.126-.327-.32-.63-.581-.91-.261-.28-.595-.511-1.001-.693-.406-.182-.884-.273-1.435-.273-.55 0-1.029.091-1.435.273-.406.182-.74.413-1.001.693-.261.28-.455.583-.581.91-.126.327-.189.63-.189.91v.602c0 .28.063.583.189.91.126.327.32.63.581.91.261.28.595.511 1.001.693.406.182.884.273 1.435.273zm0-1.204c-.308 0-.579-.051-.812-.154-.233-.103-.43-.233-.588-.392-.159-.159-.278-.336-.357-.532-.08-.196-.119-.387-.119-.574v-.462c0-.187.04-.378.119-.574.08-.196.198-.373.357-.532.159-.159.355-.29.588-.392.233-.103.504-.154.812-.154.308 0 .579.051.812.154.233.103.43.233.588.392.159.159.278.336.357.532.08.196.119.387.119.574v.462c0 .187-.04.378-.119.574-.08.196-.198.373-.357.532-.159.159-.355.29-.588.392-.233.103-.504.154-.812.154zm6.93 7.462v-4.984h-8.05v4.984h8.05zm-1.372-1.176h-5.306v-2.632h5.306v2.632zm14.22 1.19V10.052h-1.358V22.96h1.358zm-2.562-.63V10.318h-1.358v3.962h-1.96v1.204h1.96v6.846h1.358zm-8.022-2.534c.374-.383.733-.76 1.079-1.134.345-.373.657-.728.938-1.064.14-.168.263-.329.37-.483.108-.154.185-.301.231-.441h.014c.047.14.122.287.224.441.103.154.225.315.365.483.28.336.571.665.875.987.303.322.641.67 1.014 1.043l.938-.924c-.42-.401-.788-.775-1.106-1.12-.317-.345-.625-.71-.923-1.092-.28-.364-.474-.719-.582-1.064-.107-.345-.16-.719-.16-1.12V12.46h2.072v-1.162h-5.628v1.162h2.212v1.848c0 .401-.047.78-.14 1.134-.094.355-.28.714-.56 1.078-.3.392-.63.78-.995 1.162-.363.383-.755.775-1.175 1.176l.938.938z"/>
        <g>
            <path fill="#3B9F00" fill-rule="nonzero" d="M33.825 13.236v-9.24h-1.764v9.24h1.764zm-9.674-1.302c.44-.355.82-.67 1.142-.945.322-.275.641-.562.959-.861.214-.196.403-.38.567-.553.163-.173.259-.32.287-.441h.013c.047.121.154.257.323.406.168.15.373.322.616.518.326.27.646.525.959.763.312.238.604.455.875.651l1.021-1.232c-.335-.243-.678-.497-1.029-.763-.35-.266-.692-.544-1.029-.833-.186-.159-.338-.31-.454-.455-.117-.145-.208-.296-.273-.455-.066-.159-.113-.336-.14-.532-.029-.196-.043-.42-.043-.672V4.57h-1.791V6.6c0 .476-.073.877-.218 1.204-.144.327-.384.653-.72.98-.327.308-.677.625-1.05.952-.374.327-.742.63-1.107.91l1.092 1.288zm9.884 4.942v-1.512H27.33v-2.912h-1.778v4.424h8.483zm12.079-3.64v-9.24H44.35V6.74h-2.296v1.512h2.296v4.984h1.764zm-9.8-1.246c.439-.355.817-.667 1.134-.938.317-.27.635-.555.952-.854.215-.196.404-.38.567-.553.163-.173.259-.32.287-.441h.014c.047.121.154.257.322.406.168.15.373.322.616.518.327.27.644.523.952.756.308.233.597.448.868.644l1.022-1.232c-.336-.243-.677-.495-1.022-.756s-.686-.537-1.022-.826c-.187-.159-.338-.31-.455-.455-.117-.145-.208-.296-.273-.455-.065-.159-.112-.336-.14-.532-.028-.196-.042-.42-.042-.672V4.57h-1.792v2.1c0 .476-.072.877-.217 1.204-.145.327-.385.653-.721.98-.327.308-.674.623-1.043.945-.369.322-.735.623-1.099.903l1.092 1.288zm10.01 4.886v-1.512h-6.72v-2.912h-1.778v4.424h8.498zm8.873-10.08V5.298h-2.815V3.884h-1.764v1.414h-2.87v1.498h7.449zm2.743 6.636v-4.13h1.709v-1.54H57.94V3.996h-1.764v9.436h1.764zm-6.44-.938c.486 0 .922-.063 1.31-.189.387-.126.713-.296.98-.511.266-.215.468-.462.608-.742.14-.28.21-.579.21-.896v-.532c0-.317-.07-.616-.21-.896-.14-.28-.343-.527-.609-.742-.266-.215-.592-.385-.98-.511-.387-.126-.823-.189-1.308-.189-.495 0-.934.063-1.316.189-.383.126-.708.296-.974.511-.265.215-.468.462-.608.742-.14.28-.21.579-.21.896v.532c0 .317.07.616.21.896.14.28.343.527.608.742.267.215.59.385.974.511.382.126.82.189 1.316.189zm0-1.386c-.233 0-.44-.033-.623-.098-.181-.065-.333-.15-.455-.252-.12-.103-.212-.215-.272-.336-.061-.121-.091-.243-.091-.364v-.336c0-.121.03-.243.09-.364.061-.121.152-.233.273-.336.122-.103.274-.187.456-.252.181-.065.39-.098.623-.098.233 0 .44.033.623.098.181.065.333.15.454.252.122.103.213.215.273.336.061.121.092.243.092.364v.336c0 .121-.03.243-.091.364s-.152.233-.273.336c-.122.103-.273.187-.456.252-.181.065-.39.098-.622.098zm6.748 5.782v-1.512h-6.636v-2.114h-1.778v3.626h8.414zm15.057.126v-6.888h1.792v-1.54h-1.791V3.996h-1.778v13.02h1.777zm-9.38-3.108c.402-.373.747-.702 1.037-.987.289-.285.564-.562.825-.833.234-.243.456-.488.665-.735.21-.247.339-.436.386-.567h.028c.046.121.163.292.35.511.186.22.415.464.686.735.26.27.54.553.84.847.298.294.606.59.923.889l1.134-1.19c-.364-.327-.723-.665-1.078-1.015-.354-.35-.68-.688-.98-1.015-.214-.224-.385-.436-.51-.637-.126-.2-.227-.401-.301-.602-.075-.2-.124-.413-.148-.637-.023-.224-.034-.476-.034-.756V4.92h-1.806v2.996c0 .29-.02.55-.056.784-.038.233-.099.457-.182.672-.084.215-.194.425-.33.63-.135.205-.305.42-.51.644-.607.663-1.307 1.349-2.1 2.058l1.161 1.204zm23.279 1.47v-1.47h-3.15v-1.904h1.778V10.52h-7.21V9.204h6.888V4.92h-8.694v1.484h6.93V7.72h-6.888v4.284h1.708v1.904h-3.29v1.47h11.928zm-4.886-1.47h-2.016v-1.904h2.016v1.904zm9.04 1.61c.486 0 .964-.082 1.435-.245.472-.163.913-.418 1.323-.763l.672.84h2.142l-1.708-2.058c.271-.457.47-.97.596-1.54.126-.57.189-1.218.189-1.946h-1.639c0 .317-.004.588-.013.812-.01.224-.026.418-.05.581-.023.163-.053.308-.09.434-.038.126-.08.245-.127.357l-1.651-1.89c.68-.42 1.148-.842 1.4-1.267.251-.425.377-.861.377-1.309V7.37c0-.299-.055-.586-.168-.861-.112-.275-.277-.516-.497-.721-.219-.205-.494-.369-.826-.49-.33-.121-.716-.182-1.154-.182-.85 0-1.508.205-1.975.616-.466.41-.7.938-.7 1.582v.168c0 .336.061.646.182.931.122.285.318.581.589.889L90 9.68c-.335.159-.644.334-.924.525s-.517.401-.713.63c-.197.229-.35.483-.463.763-.112.28-.168.588-.168.924v.266c0 .495.103.917.308 1.267.206.35.476.632.813.847.336.215.714.371 1.134.469.42.098.84.147 1.26.147h.112zm.126-6.594c-.224-.252-.429-.506-.615-.763-.187-.257-.28-.474-.28-.651v-.14c0-.196.074-.376.224-.539.149-.163.4-.245.755-.245.318 0 .56.086.728.259.168.173.252.371.252.595v.098c0 .121-.014.236-.041.343-.029.107-.082.215-.162.322-.079.107-.186.22-.322.336-.135.117-.314.245-.538.385zm-.167 5.026c-.56 0-1.004-.117-1.33-.35-.327-.233-.49-.518-.49-.854v-.196c0-.308.105-.6.314-.875.21-.275.6-.558 1.17-.847l2.1 2.478c-.44.43-1.027.644-1.764.644zm15.816-.686V9.022h1.708v-1.54h-1.708V3.996h-1.764v9.268h1.764zm-9.492-.952c1.167-.504 2.112-.947 2.835-1.33.723-.383 1.286-.756 1.687-1.12.401-.364.672-.749.812-1.155s.21-.884.21-1.435V4.794h-5.712v1.512h3.948v.784c0 .383-.049.714-.147.994-.098.28-.306.555-.623.826-.317.27-.772.558-1.365.861-.593.303-1.384.67-2.373 1.099l.728 1.442zm9.8 4.564v-1.512h-6.636v-2.786h-1.778v4.298h8.414zm12.484-5.278V3.996h-1.763v7.602h1.763zm-9.674-.056c.44-.355.82-.67 1.141-.945.323-.275.642-.562.96-.861.214-.196.403-.38.566-.553.164-.173.26-.32.287-.441h.014c.047.121.155.257.323.406.168.15.373.322.615.518.327.27.647.525.96.763.312.238.604.455.874.651l1.022-1.232c-.336-.243-.678-.497-1.029-.763-.35-.266-.692-.544-1.028-.833-.187-.159-.339-.31-.456-.455-.116-.145-.207-.296-.272-.455-.066-.159-.112-.336-.14-.532-.028-.196-.042-.42-.042-.672V4.486h-1.793v1.722c0 .476-.072.877-.216 1.204-.145.327-.386.653-.722.98-.326.308-.676.625-1.05.952-.373.327-.742.63-1.106.91l1.092 1.288zm9.674 5.628v-4.984h-8.623v1.498h6.86v3.486h1.763z" transform="translate(56 6)"/>
            <g>
                <path fill="#89C339" d="M7.295 11.205c-.108.104-.172.254-.161.416.018.279.25.493.526.493l.036-.002 3.637-.24c.291-.02.29-.417 0-.401l-3.707-.412c-.05.003-.1.014-.145.03.228-.14.456-.3.685-.478.819-.63 1.592-1.456 2.302-2.459.155-.219.449-.287.683-.159 2.356 1.282 4.044 2.966 4.115 3.037.115.116.17.278.149.44-.021.162-.116.306-.257.388-3.254 1.906-6.122 2.868-8.546 2.868-.314 0-.62-.016-.92-.049-1.547-.155-2.913-.765-3.945-1.763-.17-.165-.21-.423-.097-.631.113-.21.352-.316.582-.263 1.246.288 3.046.346 4.966-.757z" transform="translate(56 6) rotate(-12 29.03 -.025)"/>
                <path fill="#3B9F00" fill-rule="nonzero" d="M14.454.004c.164.004.316.084.412.216.097.131.127.3.082.458-.961 3.347-2.179 6.068-3.62 8.086-.769 1.087-1.616 1.99-2.516 2.682-1.787 1.391-3.549 1.809-5.02 1.809-.667 0-1.273-.086-1.796-.206-.255-.057-.502-.127-.745-.21 2.382-3.983 5.27-6.875 8.662-8.68.26-.137.094-.327-.174-.212C5.788 5.645 2.55 8.944.221 11.98l.039.2C-.377 9.038.159 6.423 1.853 4.406 5.7-.174 14.099-.01 14.454.004z" transform="translate(56 6) rotate(-12 29.03 -.025)"/>
            </g>
        </g>
        <path fill="#3C3C43" fill-opacity=".6" fill-rule="nonzero" d="M52.144 17.122v3.514h-6.636v1.26h7v1.148H44.15v-3.528h6.636V18.27H44.08v-1.148h8.064zM19.08 11.189c1.064 0 1.9.268 2.508.802.608.535.912 1.279.912 2.23 0 .48-.153.93-.458 1.352-.305.422-.7.741-1.183.956.586.2 1.032.515 1.337.945.305.43.458.942.458 1.538 0 .957-.329 1.718-.985 2.285-.657.566-1.52.85-2.59.85-1.025 0-1.865-.274-2.519-.82-.654-.548-.981-1.275-.981-2.183h1.78l.007.171c.034.391.19.715.465.971.315.293.738.44 1.27.44.552 0 .987-.147 1.304-.44.318-.293.476-.718.476-1.274 0-.562-.166-.994-.498-1.297-.332-.302-.825-.454-1.48-.454h-1.047v-1.406h1.084l.2-.008c.454-.034.82-.173 1.1-.417.32-.278.48-.681.48-1.208 0-.508-.133-.902-.399-1.183-.266-.28-.673-.421-1.22-.421-.478 0-.871.138-1.179.413-.307.276-.461.636-.461 1.08h-1.78l.007-.202c.032-.468.175-.898.429-1.291.29-.45.696-.8 1.216-1.051.52-.252 1.102-.378 1.747-.378zm10.312.096v1.472h-.22l-.244.009c-.883.053-1.597.323-2.143.811-.596.532-.95 1.287-1.062 2.263.57-.6 1.3-.9 2.19-.9.942 0 1.685.331 2.23.996.544.664.816 1.52.816 2.57 0 1.084-.318 1.962-.955 2.633-.638.672-1.474 1.007-2.509 1.007-1.064 0-1.927-.393-2.589-1.179-.662-.786-.992-1.816-.992-3.09v-.608l.005-.346c.053-1.706.507-3.056 1.36-4.049.911-1.06 2.221-1.59 3.93-1.59h.183zm9.302.05v1.539h-4.248l-.293 2.549.188-.1c.445-.217.94-.325 1.482-.325 1.015 0 1.805.325 2.37.974.563.65.845 1.524.845 2.622 0 1.084-.312 1.947-.937 2.59-.625.641-1.482.962-2.571.962-.977 0-1.786-.277-2.428-.83-.642-.555-.99-1.286-1.044-2.194h1.721l.031.188c.086.426.261.76.526 1.002.303.276.698.414 1.186.414.547 0 .973-.196 1.279-.586.305-.391.457-.923.457-1.597 0-.65-.168-1.163-.505-1.542-.337-.378-.8-.567-1.392-.567-.322 0-.595.042-.82.128-.225.085-.469.252-.732.501l-1.421-.351.578-5.376h5.728zm-11.214 5.04c-.39 0-.748.11-1.073.33-.324.22-.562.512-.714.878v.542l.007.258c.032.671.196 1.214.491 1.628.332.467.762.7 1.29.7.527 0 .944-.198 1.252-.593.308-.396.461-.916.461-1.56 0-.645-.156-1.17-.468-1.575-.313-.405-.728-.608-1.246-.608zm24.664-6.323v6.426h-1.372v-6.426h1.372zm-7.028.182c.523 0 .985.08 1.386.238.401.159.737.364 1.008.616.27.252.474.537.609.854.135.317.203.635.203.952v.56l-.008.195c-.022.26-.087.517-.195.771-.135.317-.338.602-.609.854-.27.252-.607.455-1.008.609-.401.154-.863.231-1.386.231-.523 0-.985-.077-1.386-.231-.401-.154-.737-.357-1.008-.609-.27-.252-.474-.537-.609-.854-.135-.317-.203-.64-.203-.966v-.56l.008-.19c.022-.254.087-.508.195-.762.135-.317.338-.602.609-.854.27-.252.607-.457 1.008-.616.401-.159.863-.238 1.386-.238zm0 1.204c-.299 0-.565.042-.798.126-.233.084-.43.198-.588.343-.159.145-.28.31-.364.497-.084.187-.126.378-.126.574v.392l.008.146c.016.145.055.288.118.428.084.187.205.352.364.497.159.145.355.261.588.35.233.089.5.133.798.133.299 0 .565-.044.798-.133.233-.089.43-.205.588-.35.159-.145.28-.31.364-.497.084-.187.126-.378.126-.574v-.392l-.008-.146c-.016-.145-.055-.288-.118-.428-.084-.187-.205-.35-.364-.49s-.355-.254-.588-.343c-.233-.089-.5-.133-.798-.133z"/>
    </g>
</svg>
