<svg xmlns="http://www.w3.org/2000/svg" width="238" height="54" viewBox="0 0 238 54">
    <g fill="#FFF" fill-rule="evenodd">
        <path fill-rule="nonzero" d="M84.058 17.84V5.96H82.51v11.88h1.548zm-12.6-2.304c.912-.516 1.716-1.143 2.412-1.881s1.266-1.581 1.71-2.529c.468.804 1.05 1.539 1.746 2.205.696.666 1.482 1.239 2.358 1.719l.99-1.116c-1.008-.54-1.872-1.158-2.592-1.854-.72-.696-1.356-1.572-1.908-2.628.252-.972.372-2.004.36-3.096h-1.62c.192 3.6-1.326 6.324-4.554 8.172l1.098 1.008zm12.96 6.534v-1.35h-8.874v-3.69h-1.566v5.04h10.44zm15.696-4.23V5.96h-1.548v3.672h-3.348V11h3.348v6.84h1.548zm-12.6-2.304c.912-.516 1.716-1.143 2.412-1.881s1.266-1.581 1.71-2.529c.468.804 1.05 1.539 1.746 2.205.696.666 1.482 1.239 2.358 1.719l.99-1.116c-1.008-.54-1.872-1.158-2.592-1.854-.72-.696-1.356-1.572-1.908-2.628.252-.972.372-2.004.36-3.096h-1.62c.192 3.6-1.326 6.324-4.554 8.172l1.098 1.008zm12.96 6.534v-1.35H91.6v-3.69h-1.566v5.04h10.44zm14.922-3.42v-5.688h2.592v-1.368h-2.592V5.96h-1.548v12.69h1.548zm-5.292-11.268V6.086h-5.562v1.296h5.562zm2.088 2.358V8.444h-9.756V9.74h9.756zm-4.896 6.804c.684 0 1.278-.081 1.782-.243.504-.162.921-.381 1.251-.657.33-.276.576-.594.738-.954.162-.36.243-.738.243-1.134 0-.396-.081-.771-.243-1.125-.162-.354-.408-.669-.738-.945-.33-.276-.747-.495-1.251-.657-.504-.162-1.098-.243-1.782-.243-.684 0-1.278.081-1.782.243-.504.162-.921.381-1.251.657-.33.276-.576.591-.738.945-.162.354-.243.729-.243 1.125s.081.774.243 1.134c.162.36.408.678.738.954.33.276.747.495 1.251.657.504.162 1.098.243 1.782.243zm0-1.26c-.444 0-.822-.048-1.134-.144-.312-.096-.567-.225-.765-.387-.198-.162-.342-.348-.432-.558-.09-.21-.135-.423-.135-.639 0-.216.045-.426.135-.63.09-.204.234-.387.432-.549.198-.162.453-.294.765-.396.312-.102.69-.153 1.134-.153.444 0 .822.051 1.134.153.312.102.567.234.765.396.198.162.342.345.432.549.09.204.135.414.135.63 0 .216-.045.429-.135.639-.09.21-.234.396-.432.558-.198.162-.453.291-.765.387-.312.096-.69.144-1.134.144zm8.46 6.786v-1.35h-8.874v-2.592h-1.566v3.942h10.44zm19.638.324v-8.586h2.826V12.44h-2.826V5.96h-1.548v16.434h1.548zm-12.294-3.6c.96-.696 1.803-1.503 2.529-2.421.726-.918 1.317-1.965 1.773-3.141.504 1.092 1.113 2.073 1.827 2.943.714.87 1.521 1.623 2.421 2.259l1.008-1.152c-1.092-.732-2.034-1.611-2.826-2.637-.792-1.026-1.404-2.157-1.836-3.393.132-.648.234-1.326.306-2.034.072-.708.096-1.458.072-2.25h-1.638c.096 1.356.039 2.586-.171 3.69-.21 1.104-.531 2.097-.963 2.979-.432.882-.96 1.665-1.584 2.349-.624.684-1.302 1.29-2.034 1.818l1.116.99zm30.834 1.188v-1.314h-4.302v-2.97h2.34v-1.314h-9.27v-2.358h8.73V7.04h-10.296v1.35h8.748v2.358h-8.73v4.95h2.25v2.97h-4.77v1.314h15.3zm-5.814-1.314h-3.204v-2.97h3.204v2.97zm13.194 2.304c.876 0 1.659-.174 2.349-.522.69-.348 1.281-.822 1.773-1.422h.036l1.422 1.584h1.998l-2.61-2.772v-.036c.336-.636.564-1.338.684-2.106.12-.768.114-1.596-.018-2.484h-1.44c-.156 0-.198.072-.126.216.144.504.216 1.038.216 1.602 0 .564-.126 1.098-.378 1.602h-.036l-3.366-3.762v-.036c.288-.228.576-.468.864-.72.288-.252.546-.525.774-.819.228-.294.411-.612.549-.954.138-.342.207-.717.207-1.125 0-.732-.264-1.323-.792-1.773-.528-.45-1.302-.675-2.322-.675-.48 0-.9.072-1.26.216-.36.144-.663.339-.909.585-.246.246-.432.537-.558.873-.126.336-.189.696-.189 1.08 0 .324.039.618.117.882.078.264.189.519.333.765.144.246.309.486.495.72.186.234.387.477.603.729v.072c-.432.336-.837.678-1.215 1.026-.378.348-.708.702-.99 1.062-.282.36-.507.735-.675 1.125-.168.39-.252.801-.252 1.233 0 .672.123 1.254.369 1.746s.585.9 1.017 1.224c.252.18.501.324.747.432.246.108.501.195.765.261s.546.111.846.135c.3.024.624.036.972.036zm-.45-9.054h-.036c-.204-.24-.381-.459-.531-.657-.15-.198-.276-.39-.378-.576-.102-.186-.177-.381-.225-.585-.048-.204-.072-.426-.072-.666 0-.444.138-.804.414-1.08.276-.276.63-.414 1.062-.414.576 0 .99.132 1.242.396s.378.588.378.972c0 .3-.045.567-.135.801-.09.234-.216.453-.378.657-.162.204-.357.399-.585.585-.228.186-.48.375-.756.567zm.27 7.74c-.36 0-.714-.054-1.062-.162-.348-.108-.657-.267-.927-.477-.27-.21-.489-.471-.657-.783-.168-.312-.252-.678-.252-1.098 0-.372.057-.708.171-1.008.114-.3.276-.585.486-.855.21-.27.465-.534.765-.792s.636-.531 1.008-.819h.036l3.762 4.248v.036c-.384.528-.855.945-1.413 1.251-.558.306-1.197.459-1.917.459zm22.518-1.746V12.62h2.592v-1.368h-2.592V5.96h-1.548v11.952h1.548zM171.88 16.31c1.2-.432 2.265-.963 3.195-1.593.93-.63 1.716-1.347 2.358-2.151.642-.804 1.14-1.683 1.494-2.637.354-.954.567-1.965.639-3.033-.852.024-1.698.036-2.538.036h-5.13v1.332h1.512c.72 0 1.437-.003 2.151-.009.714-.006 1.431-.021 2.151-.045-.216 1.656-.912 3.072-2.088 4.248-1.176 1.176-2.736 2.07-4.68 2.682l.936 1.17zm12.132 5.76v-1.35h-8.694v-3.636h-1.566v4.986h10.26zm16.47-6.57V5.96h-1.548v9.54h1.548zm-12.6-.342c.9-.504 1.704-1.107 2.412-1.809s1.284-1.509 1.728-2.421c.48.78 1.062 1.485 1.746 2.115.684.63 1.47 1.173 2.358 1.629l.972-1.098c-1.02-.516-1.893-1.116-2.619-1.8-.726-.684-1.347-1.506-1.863-2.466.252-.924.372-1.914.36-2.97h-1.62c.096 1.8-.246 3.33-1.026 4.59-.78 1.26-1.956 2.328-3.528 3.204l1.08 1.026zm12.6 7.29v-6.012h-10.62v1.332h9.072v4.68h1.548zM78.1 37.772c.9 0 1.701-.102 2.403-.306.702-.204 1.293-.48 1.773-.828s.843-.75 1.089-1.206c.246-.456.369-.93.369-1.422 0-.504-.123-.984-.369-1.44-.246-.456-.609-.861-1.089-1.215-.48-.354-1.071-.636-1.773-.846-.702-.21-1.503-.315-2.403-.315-.9 0-1.698.105-2.394.315-.696.21-1.281.492-1.755.846s-.834.759-1.08 1.215c-.246.456-.369.936-.369 1.44 0 .492.123.966.369 1.422.246.456.606.858 1.08 1.206.474.348 1.059.624 1.755.828.696.204 1.494.306 2.394.306zm0-1.854c-.6 0-1.11-.051-1.53-.153-.42-.102-.759-.243-1.017-.423-.258-.18-.444-.384-.558-.612-.114-.228-.171-.468-.171-.72 0-.252.057-.495.171-.729.114-.234.303-.444.567-.63.264-.186.603-.333 1.017-.441.414-.108.921-.162 1.521-.162.6 0 1.11.054 1.53.162.42.108.762.255 1.026.441s.456.396.576.63c.12.234.18.477.18.729s-.06.492-.18.72c-.12.228-.309.432-.567.612-.258.18-.597.321-1.017.423-.42.102-.936.153-1.548.153zm-1.476 10.53v-5.706h3.168v5.706h2.232v-5.706h3.708v-1.854H70.288v1.854h4.122v5.706h2.214zm25.344-6.21v-1.8h-6.804V37.34h4.572v-1.71h-8.838v-.954h8.334v-1.638h-8.334v-.918h8.604v-1.818h-10.8v7.038h4.212v1.098H86.2v1.8h15.768zm-7.884 6.426c.936 0 1.761-.072 2.475-.216.714-.144 1.311-.348 1.791-.612s.843-.573 1.089-.927c.246-.354.369-.747.369-1.179 0-.876-.48-1.578-1.44-2.106-.96-.528-2.388-.792-4.284-.792s-3.324.264-4.284.792-1.44 1.23-1.44 2.106c0 .432.12.825.36 1.179.24.354.6.663 1.08.927.48.264 1.077.468 1.791.612.714.144 1.545.216 2.493.216zm0-1.71c-.636 0-1.17-.036-1.602-.108-.432-.072-.78-.165-1.044-.279-.264-.114-.453-.243-.567-.387-.114-.144-.171-.294-.171-.45 0-.156.057-.306.171-.45.114-.144.303-.273.567-.387.264-.114.612-.204 1.044-.27.432-.066.966-.099 1.602-.099.636 0 1.17.033 1.602.099.432.066.78.156 1.044.27.264.114.453.243.567.387.114.144.171.294.171.45 0 .156-.057.306-.171.45-.114.144-.303.273-.567.387-.264.114-.612.207-1.044.279-.432.072-.966.108-1.602.108zm22.212 1.584V29.852h-2.232v16.686h2.232zm-12.348-3.402c1.32-.708 2.448-1.482 3.384-2.322.936-.84 1.71-1.755 2.322-2.745.612-.99 1.074-2.055 1.386-3.195.312-1.14.51-2.358.594-3.654-1.02.024-1.971.036-2.853.036h-5.463v1.908h1.908c1.332 0 2.664-.018 3.996-.054-.096.78-.291 1.56-.585 2.34-.294.78-.711 1.533-1.251 2.259-.54.726-1.215 1.416-2.025 2.07-.81.654-1.779 1.251-2.907 1.791l1.494 1.566zm27.648-.63v-5.22h2.502v-1.908h-2.502v-5.526h-2.214v12.654h2.214zm-5.058-10.746v-1.782h-5.958v1.782h5.958zm2.016 2.556v-1.71h-10.116v1.71h10.116zm-4.986 6.372c.66 0 1.239-.084 1.737-.252.498-.168.918-.387 1.26-.657.342-.27.6-.582.774-.936.174-.354.261-.723.261-1.107 0-.372-.087-.735-.261-1.089-.174-.354-.432-.669-.774-.945-.342-.276-.762-.495-1.26-.657-.498-.162-1.077-.243-1.737-.243-.66 0-1.242.081-1.746.243-.504.162-.924.381-1.26.657-.336.276-.591.591-.765.945-.174.354-.261.717-.261 1.089 0 .384.087.753.261 1.107.174.354.429.666.765.936s.756.489 1.26.657c.504.168 1.086.252 1.746.252zm0-1.638c-.708 0-1.206-.129-1.494-.387-.288-.258-.432-.561-.432-.909 0-.36.144-.672.432-.936.288-.264.786-.396 1.494-.396.684 0 1.173.132 1.467.396.294.264.441.576.441.936 0 .348-.15.651-.45.909-.3.258-.786.387-1.458.387zm8.37 7.164v-1.89h-8.514v-2.358h-2.25v4.248h10.764zm13.158-1.404V30.878h-2.232c-.348.42-.738.801-1.17 1.143-.432.342-.9.621-1.404.837v1.314c0 .156.072.204.216.144.384-.144.783-.324 1.197-.54.414-.216.795-.462 1.143-.738h.018V44.81h2.232zm8.91.288c1.476 0 2.619-.573 3.429-1.719.81-1.146 1.215-2.979 1.215-5.499 0-2.52-.405-4.353-1.215-5.499s-1.953-1.719-3.429-1.719c-1.476 0-2.619.573-3.429 1.719-.81 1.146-1.215 2.979-1.215 5.499 0 2.52.405 4.353 1.215 5.499s1.953 1.719 3.429 1.719zm0-1.782c-.756 0-1.347-.429-1.773-1.287-.426-.858-.639-2.241-.639-4.149s.213-3.291.639-4.149c.426-.858 1.017-1.287 1.773-1.287s1.347.429 1.773 1.287c.426.858.639 2.241.639 4.149s-.213 3.291-.639 4.149c-.426.858-1.017 1.287-1.773 1.287zm10.494 1.782c1.476 0 2.619-.573 3.429-1.719.81-1.146 1.215-2.979 1.215-5.499 0-2.52-.405-4.353-1.215-5.499s-1.953-1.719-3.429-1.719c-1.476 0-2.619.573-3.429 1.719-.81 1.146-1.215 2.979-1.215 5.499 0 2.52.405 4.353 1.215 5.499s1.953 1.719 3.429 1.719zm0-1.782c-.756 0-1.347-.429-1.773-1.287-.426-.858-.639-2.241-.639-4.149s.213-3.291.639-4.149c.426-.858 1.017-1.287 1.773-1.287s1.347.429 1.773 1.287c.426.858.639 2.241.639 4.149s-.213 3.291-.639 4.149c-.426.858-1.017 1.287-1.773 1.287zm10.494 1.728l7.74-14.364h-2.25l-7.776 14.364h2.286zm-1.026-6.876c.528 0 .99-.093 1.386-.279.396-.186.726-.441.99-.765s.462-.711.594-1.161c.132-.45.198-.939.198-1.467 0-.528-.066-1.017-.198-1.467-.132-.45-.33-.837-.594-1.161-.264-.324-.594-.579-.99-.765-.396-.186-.858-.279-1.386-.279-.528 0-.99.093-1.386.279-.396.186-.726.441-.99.765s-.462.711-.594 1.161c-.132.45-.198.939-.198 1.467 0 .528.066 1.017.198 1.467.132.45.33.837.594 1.161.264.324.594.579.99.765.396.186.858.279 1.386.279zm0-1.584c-.744 0-1.116-.696-1.116-2.088 0-1.392.372-2.088 1.116-2.088.744 0 1.116.696 1.116 2.088 0 1.392-.372 2.088-1.116 2.088zm7.578 8.316c.528 0 .99-.093 1.386-.279.396-.186.726-.441.99-.765s.462-.711.594-1.161c.132-.45.198-.939.198-1.467 0-.528-.066-1.017-.198-1.467-.132-.45-.33-.837-.594-1.161-.264-.324-.594-.579-.99-.765-.396-.186-.858-.279-1.386-.279-.528 0-.99.093-1.386.279-.396.186-.726.441-.99.765s-.462.711-.594 1.161c-.132.45-.198.939-.198 1.467 0 .528.066 1.017.198 1.467.132.45.33.837.594 1.161.264.324.594.579.99.765.396.186.858.279 1.386.279zm0-1.584c-.744 0-1.116-.696-1.116-2.088 0-1.392.372-2.088 1.116-2.088.744 0 1.116.696 1.116 2.088 0 1.392-.372 2.088-1.116 2.088zm19.332-3.204v-4.104h1.926v4.104h1.494V29.96h-1.494v4.77h-1.926v-4.59h-1.476v9.972h1.476zm-4.194-8.73v-1.278h-4.32v1.278h4.32zm-5.346 8.55c.72-.336 1.404-.735 2.052-1.197.648-.462 1.242-.981 1.782-1.557.792.888 1.74 1.65 2.844 2.286l1.098-1.17c-.612-.3-1.173-.624-1.683-.972s-.975-.75-1.395-1.206c.384-.54.705-1.113.963-1.719.258-.606.423-1.233.495-1.881-.78.024-1.482.036-2.106.036h-4.122v1.26h1.838c.41-.002.799-.005 1.168-.009.492-.006.948-.021 1.368-.045-.66 2.124-2.418 3.81-5.274 5.058l.972 1.116zm12.96 6.516v-5.4h-10.962v1.332h9.414v4.068h1.548zm15.642-7.236V29.96h-1.548v9.252h1.548zm-8.748-.702c.588 0 1.137-.102 1.647-.306.51-.204.951-.489 1.323-.855s.663-.798.873-1.296c.21-.498.315-1.041.315-1.629 0-.576-.105-1.113-.315-1.611-.21-.498-.501-.93-.873-1.296s-.813-.654-1.323-.864c-.51-.21-1.059-.315-1.647-.315-.6 0-1.152.105-1.656.315-.504.21-.945.498-1.323.864s-.672.798-.882 1.296c-.21.498-.315 1.035-.315 1.611 0 .588.105 1.131.315 1.629.21.498.504.93.882 1.296s.819.651 1.323.855c.504.204 1.056.306 1.656.306zm0-1.35c-.384 0-.741-.069-1.071-.207-.33-.138-.612-.33-.846-.576-.234-.246-.417-.534-.549-.864-.132-.33-.198-.693-.198-1.089 0-.384.066-.744.198-1.08.132-.336.315-.627.549-.873.234-.246.516-.438.846-.576.33-.138.687-.207 1.071-.207.384 0 .738.069 1.062.207.324.138.603.33.837.576.234.246.417.537.549.873.132.336.198.696.198 1.08 0 .396-.066.759-.198 1.089-.132.33-.315.618-.549.864-.234.246-.513.438-.837.576-.324.138-.678.207-1.062.207zm8.748 8.982v-5.994h-10.26v5.994h10.26zm-1.548-1.35h-7.164v-3.276h7.164v3.276zm17.874 1.602V29.96h-1.548v16.434h1.548zm-3.312-.414V30.14h-1.494v5.616h-2.196v1.314h2.196v8.91h1.494zm-9.504-3.348c.732-.612 1.392-1.278 1.98-1.998.588-.72 1.11-1.494 1.566-2.322.348.708.753 1.374 1.215 1.998.462.624.963 1.188 1.503 1.692l1.224-1.044c-.648-.54-1.248-1.17-1.8-1.89s-1.02-1.482-1.404-2.286c.708-1.704 1.134-3.504 1.278-5.4-.72.024-1.395.036-2.025.036h-3.915v1.314h1.08c.54 0 1.083-.003 1.629-.009.546-.006 1.059-.027 1.539-.063-.204 1.848-.72 3.51-1.548 4.986-.828 1.476-2.016 2.832-3.564 4.068l1.242.918z"/>
        <path d="M27 0c14.912 0 27 12.088 27 27S41.912 54 27 54 0 41.912 0 27 12.088 0 27 0zm-.233 10c-7.18 0-13 5.82-13 13 0 3.332 1.254 6.372 3.316 8.673L12.7 38.327l5.89.979 3.73 4.354 3.526-7.692c.304.021.612.032.921.032.685 0 1.357-.053 2.013-.155l3.724 7.761 3.872-4.545 5.655-.955-4.933-7.213c1.674-2.188 2.67-4.924 2.67-7.893 0-7.18-5.82-13-13-13zm-7.82 23.386c1.285.969 2.756 1.705 4.35 2.145l-1.62 3.534-1.78-2.077-2.994-.497zm16.402-.62l2.411 3.526-2.697.456-1.969 2.31-1.846-3.85c1.52-.559 2.907-1.393 4.1-2.442zM26.767 12.5c5.8 0 10.5 4.701 10.5 10.5s-4.7 10.5-10.5 10.5c-5.799 0-10.5-4.701-10.5-10.5s4.701-10.5 10.5-10.5zm.214 9.5c-3.397 0-5.626 5-3.935 6.047 1.69 1.047 2.442-.417 3.871-.417 1.43 0 2.27 1.464 3.965.417C32.578 27 30.378 22 26.982 22zm-4.377-.658c-.533-.635-1.853-1.164-2.488-.631-.635.532-.343 1.925.19 2.56.532.634 1.478.717 2.113.184.634-.533.717-1.479.185-2.113zm10.815-.631c-.635-.533-1.955-.004-2.488.63-.532.635-.45 1.581.185 2.114.635.533 1.58.45 2.113-.185.533-.634.824-2.027.19-2.56zm-4.296-3.397h-.117c-.745.049-1.51 1.009-1.667 1.742-.172.81.345 1.607 1.156 1.779.81.172 1.606-.345 1.779-1.155.172-.81-.224-2.177-1.035-2.35l-.116-.016zm-3.124 1.715c-.186-.807-1.123-1.878-1.93-1.692-.807.187-1.18 1.56-.993 2.367.186.807.992 1.31 1.799 1.124.807-.186 1.31-.992 1.124-1.799z"/>
    </g>
</svg>
